<?xml version="1.0" standalone="no"?>
<!DOCTYPE svg PUBLIC "-//W3C//DTD SVG 20010904//EN"
 "http://www.w3.org/TR/2001/REC-SVG-20010904/DTD/svg10.dtd">
<svg version="1.0" xmlns="http://www.w3.org/2000/svg"
 width="360.000000pt" height="360.000000pt" viewBox="0 0 360.000000 360.000000"
 preserveAspectRatio="xMidYMid meet">

<g transform="translate(0.000000,360.000000) scale(0.100000,-0.100000)"
fill="#000000" stroke="none">
<path d="M2143 2886 c-67 -22 -131 -66 -354 -246 -279 -225 -460 -383 -497
-434 -108 -150 -72 -362 85 -506 90 -82 170 -114 283 -114 105 0 159 22 275
114 90 72 114 98 115 121 0 21 -32 49 -56 49 -10 0 -61 -34 -113 -75 -107 -86
-171 -111 -253 -102 -154 19 -288 164 -288 314 0 91 31 143 142 238 51 44 95
82 98 85 3 3 46 39 95 80 50 41 92 77 95 81 9 9 263 213 305 243 56 41 99 55
175 55 139 1 257 -98 296 -248 32 -125 5 -192 -132 -325 -103 -101 -113 -126
-66 -150 26 -13 32 -13 58 3 54 33 199 194 227 251 70 145 32 314 -100 448
-84 85 -170 126 -273 129 -43 2 -93 -3 -117 -11z"/>
<path d="M1808 2166 c-71 -28 -286 -186 -308 -227 -9 -16 -8 -26 5 -45 25 -38
57 -31 138 34 158 124 181 137 268 141 66 3 86 -1 133 -22 73 -34 140 -97 173
-166 23 -46 28 -69 28 -131 -1 -114 -18 -139 -225 -311 -63 -53 -157 -132
-209 -175 -234 -196 -337 -274 -385 -290 -135 -45 -289 34 -364 186 -22 45
-27 69 -27 130 0 98 24 140 138 240 95 84 116 113 101 137 -18 29 -41 38 -67
28 -38 -15 -194 -163 -226 -214 -35 -55 -61 -139 -61 -197 0 -107 77 -258 169
-332 154 -122 318 -135 461 -34 112 78 650 528 713 595 20 23 50 66 65 96 23
49 27 68 27 146 -1 81 -4 97 -34 160 -45 92 -133 180 -225 225 -61 30 -80 35
-160 37 -61 2 -103 -2 -128 -11z"/>
</g>
</svg>
